# xmcd
#
# Track frame offsets:
#	150
#	15754
#	31877
#	50738
#	66852
#	83496
#	102603
#	116857
#	132208
#	150178
#	165970
#	183301
#	198206
#	212936
#	229929
#	247695
#
# Disc length: 3520 seconds
#
# Revision: 1
# Processed by: cddbd v1.5.2PL0 Copyright (c) Steve Scherf et al.
# Submitted via: audiograbber 1.83.01
#
DISCID=c30dbe10
DTITLE=Various Artist - Country Heat 2013
DYEAR=2012
DGENRE=Country
TTITLE0=Carrie Underwood - Good Girl
TTITLE1=Blake Shelton - Drink On It
TTITLE2=Kenny Chesney - Come Over
TTITLE3=Jake Owen - Alone With You
TTITLE4=Jason Aldean - Fly Over States
TTITLE5=Johnny Reid - Baby I Know It (Feat. Carolyn Dawn Johnson)
TTITLE6=Love And Theft - Angel Eyes
TTITLE7=Korthey and Dave - Marry Me Again
TTITLE8=Dallas Smith - Jumped Right In
TTITLE9=Dean Brody - Bob Marley
TTITLE10=Dustin Lynch - Cowboys And Angels
TTITLE11=Kira Isabella - A Little More Work
TTITLE12=Gord Bamford - Leaning On A Lonesome Song
TTITLE13=Miranda Lambert - Over You
TTITLE14=Gloriana - (Kissed You) Good Night
TTITLE15=Kelly Clarkson - Mr. Know It All (Country Version)
EXTD=
EXTT0=
EXTT1=
EXTT2=
EXTT3=
EXTT4=
EXTT5=
EXTT6=
EXTT7=
EXTT8=
EXTT9=
EXTT10=
EXTT11=
EXTT12=
EXTT13=
EXTT14=
EXTT15=
PLAYORDER=
